<svg width="256" xmlns="http://www.w3.org/2000/svg" height="256" fill="none"><defs><clipPath id="a" class="frame-clip frame-clip-def"><rect rx="0" ry="0" width="256" height="256"/></clipPath></defs><g clip-path="url(#a)"><g class="fills"><rect rx="0" ry="0" width="256" height="256" class="frame-background"/></g><g class="frame-children"><g xml:space="preserve" style="fill: rgb(0, 0, 0);"><path d="M8.533 135.36H96.56v44.107h43.92V99.76H52.613l87.867-88.053H96.56L8.533 99.76ZM159.44 55.787l43.947-44.08H159.44ZM203.387 55.787 159.44 99.76v43.947h43.947V99.76l44.08-43.973v-44.08h-44.08ZM247.467 99.76l-44.08 43.947h44.08Z" class="fills"/></g><g xml:space="preserve" style="fill: rgb(0, 0, 0);"><path d="M108.207 221.508c0-11.309 30.352-17.496 67.793-17.496s67.793 6.187 67.793 17.496c0 15.914-30.352 28.804-67.793 28.804s-67.793-12.89-67.793-28.804Z" style="fill: rgb(148, 209, 224);" class="fills"/><path d="M114.066 164.391v53.379h.036c.785 13.886 28.031 25.042 61.546 25.042 33.516 0 60.762-11.156 61.547-25.042h.035v-53.379H114.066Z" style="fill: rgb(230, 63, 51);" class="fills"/><path d="M128.457 193.641c12.762 5.32 29.52 8.25 47.191 8.25 17.672 0 34.477-2.825 47.192-8.25 11.426-4.875 12.586-8.11 14.39-9.973v-7.09c-3.339 4.43-8.976 8.402-16.675 11.602-12.059 5.027-28.008 7.793-44.918 7.793s-32.86-2.766-44.918-7.793c-7.688-3.211-13.324-7.172-16.676-11.602v8.637l5.918 4.172c2.555 1.535 5.379 2.953 8.496 4.254Z" style="fill: rgb(189, 189, 189);" class="fills"/><path d="M151.566 195v47.449" style="fill: none; stroke-miterlimit: 10;" class="fills"/><g class="strokes" style="fill: none; stroke-miterlimit: 10;"><path d="M151.566 195v47.449" style="fill: none; stroke-width: 4.0928; stroke: rgb(148, 209, 224); stroke-opacity: 1;" class="stroke-shape"/></g><path d="M199.73 195v47.449" style="fill: none; stroke-miterlimit: 10;" class="fills"/><g class="strokes" style="fill: none; stroke-miterlimit: 10;"><path d="M199.73 195v47.449" style="fill: none; stroke-width: 4.0928; stroke: rgb(148, 209, 224); stroke-opacity: 1;" class="stroke-shape"/></g><path d="M150.23 229.277a5.075 5.075 0 0 1-2.625-2.238c-.996-1.793-.914-4.09-.949-6.387-.07-5.004 1.313-6.246 2.942-6.246h3.925c2.942 1.207 2.942 3.633 2.942 5.262v2.789c0 2.461.129 4.922-2.227 6.48-.222.153-2.05 1.055-4.008.34ZM201.031 229.277a6.478 6.478 0 0 0 2.625-2.238c1.395-2.051.914-4.09.949-6.387.071-4.734-1.312-6.246-2.941-6.246h-3.926c-2.941 1.207-2.941 3.633-2.941 5.262v2.789c0 2.461.047 4.676 2.226 6.48 1.008.833 2.942.833 4.008.34ZM242.012 202.371c-.117-5.519-1.125-6.469-3.75-6.246v-19.254l-3.867 2.391.281 45.984s3.574 1.102 3.574-2.754v-11.25c3.82-1.336 4.02-5.402 3.762-8.871ZM116.809 178.664l-3.868-2.391v19.852c-2.625-.223-3.632.727-3.75 6.246 0 2.297-.386 4.336.821 6.387.691 1.148 1.687 2.121 2.929 2.484v10.793c0 3.856 3.575 2.754 3.575 2.754l.293-46.125Z" style="fill: rgb(148, 209, 224);" class="fills"/><path d="M240.641 166.523c-1.911-22.558-42.61-28.921-64.993-28.851-22.183-.188-64.793 6.668-64.968 29.836-12.223 21.82 26.519 36.422 65.32 36.515 38.93.094 79.137-15.421 64.641-37.5Z" style="fill: rgb(148, 209, 224);" class="fills"/><ellipse cx="175.648" cy="166.746" rx="61.582" ry="25.664" style="fill: rgb(255, 204, 128);" class="fills"/><ellipse cx="175.648" cy="169.125" rx="56.848" ry="23.684" style="fill: rgb(254, 246, 224);" class="fills"/><path d="m164.176 183.609-40.957-27.211 6.469-3.128 36.398 27.656ZM188.129 183.609l40.945-27.211-6.457-3.128-36.41 27.656Z" style="fill: rgb(255, 204, 128);" class="fills"/><path d="M168.547 178.418c-1.652-2.238-4.336-2.742-4.676-3.363l-1.336-2.391c-.457-.82-.797-1.336-1.172-1.828l-46.453-59.813a3.444 3.444 0 0 0-4.64-.75 3.434 3.434 0 0 0-.727 5.028l46.898 59.074a12.214 12.214 0 0 0 2.11 2.074l1.969 1.512c.527.398.433 2.941 2.296 4.652 1.547 1.418 3.961 1.934 5.497.317 1.183-1.231 1.207-3.2.234-4.512ZM184.004 178.418c1.652-2.238 4.336-2.742 4.676-3.363l1.336-2.391c.457-.82.797-1.336 1.172-1.828l46.453-59.813a3.448 3.448 0 0 1 4.64-.75 3.434 3.434 0 0 1 .727 5.028l-46.899 59.086a12.209 12.209 0 0 1-2.109 2.074l-1.969 1.512c-.527.398-.433 2.941-2.297 4.652-1.546 1.418-3.961 1.934-5.496.316-1.183-1.242-1.207-3.211-.234-4.523Z" style="fill: rgb(186, 121, 62);" class="fills"/><path d="M123.324 189.656c-6.808-4.23-9.937-8.508-9.386-9.926.351-.902 1.652-.902 2.273-.164 6.152 7.243 18.762 12.34 27.867 14.028.949.176 1.676 1.945-.879 2.191-2.215.199-10.886-.539-19.875-6.129ZM198.969 226.898c-.774.317-1.641-.621-2.004-1.851-.363-1.231-.574-5.52-.363-6.774.199-1.242.457-2.003 1.429-2.003.973 0 1.758.785 1.758 1.757 0 0-.117 4.688-.059 5.825.059 1.16.012 2.73-.761 3.046ZM150.746 226.898c-.773.317-1.641-.621-2.004-1.851-.363-1.231-.574-5.52-.363-6.774.211-1.253.457-2.003 1.43-2.003.972 0 1.757.785 1.757 1.757 0 0-.117 4.688-.058 5.825.058 1.16.012 2.73-.762 3.046Z" style="fill: rgb(255, 255, 255);" class="fills"/></g></g></g></svg>